<svg width="0" height="0" class="hidden">
  <symbol xmlns="http://www.w3.org/2000/svg" viewBox="0 0 49 13" id="logo">
    <path d="M.992.727h4.383c1.125 0 2.04.349 2.742 1.046.703.693 1.055 1.602 1.055 2.727 0 1.12-.362 2.029-1.086 2.727-.719.697-1.651 1.046-2.797 1.046H3.008V12H.992V.727zm2.016 1.648v4.273h1.828c.724 0 1.286-.187 1.687-.562.401-.375.602-.904.602-1.586 0-.677-.2-1.2-.602-1.57-.395-.37-.955-.555-1.68-.555H3.009zM10.5 12V3.719h1.945V12H10.5zm1.734-9.672a1.055 1.055 0 01-.765.305 1.055 1.055 0 01-1.078-1.055c0-.297.104-.547.312-.75.209-.208.464-.312.766-.312s.557.104.765.312c.214.203.32.453.32.75 0 .292-.106.542-.32.75zm3.868 4.844l3.117-3.453h2.242L18.148 7.28 21.602 12h-2.25l-2.618-3.54-.656.665V12h-1.945V.727h1.945v6.445h.024zm9.265 3.492c.557 0 1.026-.164 1.406-.492.386-.333.579-.748.579-1.242v-.633l-1.915.117c-.468.031-.833.149-1.093.352a.949.949 0 00-.383.789c0 .338.128.61.383.812.26.198.601.297 1.023.297zm-.586 1.469c-.807 0-1.471-.232-1.992-.695-.516-.464-.773-1.066-.773-1.805 0-.735.27-1.315.812-1.742.547-.427 1.326-.672 2.336-.735l2.188-.125v-.593c0-.433-.139-.769-.415-1.008-.27-.24-.648-.36-1.132-.36-.453 0-.823.102-1.11.305-.286.203-.46.48-.523.828h-1.805c.042-.786.378-1.424 1.008-1.914.635-.495 1.471-.742 2.508-.742 1.026 0 1.846.25 2.46.75.62.5.93 1.167.93 2V12h-1.875v-1.32h-.039a2.609 2.609 0 01-1.062 1.062 3.1 3.1 0 01-1.516.39zM36.25 12V9.867h-5.625V8.133c.927-1.75 2.487-4.219 4.68-7.406h2.867v7.492h1.516v1.648h-1.516V12H36.25zm-3.797-3.79v.056h3.828V2.219h-.031a112.74 112.74 0 00-2.29 3.422 38.67 38.67 0 00-1.507 2.57zm15.86-4.491V12h-1.876v-1.438h-.039c-.458 1.058-1.302 1.586-2.53 1.586-.902 0-1.618-.273-2.15-.82-.525-.552-.788-1.305-.788-2.258V3.72h1.945v4.96c0 .594.14 1.048.422 1.36.286.313.703.469 1.25.469.557 0 1-.182 1.328-.547.328-.365.492-.849.492-1.453v-4.79h1.946z" ></path>
  </symbol>
  <symbol xmlns="http://www.w3.org/2000/svg" viewBox="0 0 16 16" id="icon-right">
    <path d="M14.213 13.352l-4.058-4.058c.63-.814.97-1.81.97-2.857a4.66 4.66 0 00-1.373-3.314A4.653 4.653 0 006.437 1.75a4.66 4.66 0 00-3.314 1.373A4.65 4.65 0 001.75 6.437c0 1.252.49 2.43 1.373 3.315a4.65 4.65 0 003.314 1.373c1.047 0 2.041-.34 2.855-.969l4.058 4.056a.129.129 0 00.181 0l.681-.68a.129.129 0 000-.18zm-5.3-4.44a3.481 3.481 0 01-2.476 1.025 3.481 3.481 0 01-2.475-1.024 3.481 3.481 0 01-1.025-2.476 3.48 3.48 0 011.026-2.475 3.481 3.481 0 012.474-1.025c.935 0 1.815.363 2.475 1.026a3.481 3.481 0 011.025 2.474c0 .935-.364 1.815-1.024 2.475z"></path>
  </symbol>

  <symbol  xmlns="http://www.w3.org/2000/svg" viewBox="0 0 22 22" id="comments">
    <path d="M10.25 11a1.125 1.125 0 102.25 0 1.125 1.125 0 00-2.25 0zm4.688 0a1.125 1.125 0 102.25 0 1.125 1.125 0 00-2.25 0zm-9.375 0a1.125 1.125 0 102.25 0 1.125 1.125 0 00-2.25 0zM21.06 6.931A10.503 10.503 0 0011.375.5h-.047A10.475 10.475 0 00.875 11.05 10.533 10.533 0 002 15.733v3.563a1.078 1.078 0 001.078 1.078h3.565a10.533 10.533 0 004.685 1.125h.05c1.403 0 2.765-.272 4.047-.804a10.417 10.417 0 003.347-2.231 10.475 10.475 0 003.103-7.418 10.46 10.46 0 00-.815-4.116zm-3.542 10.266a8.673 8.673 0 01-6.143 2.522h-.04a8.75 8.75 0 01-4.057-1.02l-.197-.105h-3.3v-3.3l-.105-.197a8.75 8.75 0 01-1.02-4.057 8.665 8.665 0 012.522-6.183 8.653 8.653 0 016.16-2.576h.04c1.171 0 2.308.228 3.38.678a8.664 8.664 0 012.788 1.875 8.683 8.683 0 012.552 6.206 8.685 8.685 0 01-2.58 6.157z" ></path>
  </symbol>
  <symbol  xmlns="http://www.w3.org/2000/svg" viewBox="0 0 19 20" id="like">
    <path d="M18.138 10.51c.394-.52.612-1.158.612-1.822 0-1.052-.588-2.048-1.535-2.604a1.586 1.586 0 00-.804-.218h-5.62l.14-2.88a2.509 2.509 0 00-.691-1.861A2.498 2.498 0 008.414.342c-1.219 0-2.297.82-2.62 1.995L3.78 9.626H.75a.75.75 0 00-.75.75v8.531c0 .415.335.75.75.75h14.093c.216 0 .427-.042.621-.127a3.014 3.014 0 001.709-3.642 3.016 3.016 0 00.485-2.688c.394-.52.611-1.158.611-1.821a3.2 3.2 0 00-.13-.87zm-16.45 7.46v-6.657h1.898v6.657H1.688zm14.915-8.274l-.513.445.326.596a1.338 1.338 0 01-.298 1.648l-.513.445.325.595a1.338 1.338 0 01-.298 1.648l-.512.445.325.595a1.332 1.332 0 01-.626 1.854H5.086v-6.729L7.418 2.79a1.034 1.034 0 01.989-.757.833.833 0 01.837.872l-.225 4.65h7.368c.418.255.675.687.675 1.134 0 .387-.168.753-.459 1.008z"></path>
  </symbol>
  <symbol  xmlns="http://www.w3.org/2000/svg" viewBox="0 0 19 20" id="save">
    <path d="M18.312 4.874L14.5 1.064a1.494 1.494 0 00-.626-.376V.625H.75a.75.75 0 00-.75.75v17.25c0 .415.335.75.75.75H18a.75.75 0 00.75-.75V5.934c0-.399-.157-.779-.438-1.06zM6.375 2.313h6V4.75h-6V2.312zm10.688 15.374H1.688V2.313h3.187V5.5c0 .415.335.75.75.75h7.5a.75.75 0 00.75-.75V2.823l3.188 3.188v11.677zM9.375 8.36a3.376 3.376 0 10.002 6.752 3.376 3.376 0 00-.002-6.752zm0 5.25a1.875 1.875 0 11-.001-3.749 1.875 1.875 0 01.001 3.75z" ></path>
  </symbol>
  <symbol  xmlns="http://www.w3.org/2000/svg" viewBox="0 0 18 20" id="share">
    <path d="M14.438 13.563a2.8 2.8 0 00-1.768.625l-4.856-3.513a3.766 3.766 0 000-1.35l4.856-3.513a2.8 2.8 0 001.768.625 2.815 2.815 0 002.812-2.812A2.815 2.815 0 0014.437.812a2.815 2.815 0 00-2.702 3.593l-4.612 3.34A3.749 3.749 0 00.375 10a3.749 3.749 0 006.748 2.255l4.612 3.34a2.815 2.815 0 002.702 3.593 2.815 2.815 0 002.813-2.813 2.815 2.815 0 00-2.813-2.813zm0-11.157a1.22 1.22 0 11-.002 2.439 1.22 1.22 0 01.002-2.439zM4.124 12.062A2.066 2.066 0 012.062 10c0-1.137.926-2.063 2.063-2.063S6.188 8.864 6.188 10a2.066 2.066 0 01-2.063 2.063zm10.313 5.532a1.22 1.22 0 110-2.439 1.22 1.22 0 010 2.439z" ></path>
  </symbol>
    <symbol  xmlns="http://www.w3.org/2000/svg" viewBox="0 0 22 22" id="exit">
    <path d="M15.537 1.927a.188.188 0 00-.272.17V3.6c0 .129.068.248.176.319a8.255 8.255 0 011.458 1.167 8.319 8.319 0 012.442 5.906 8.33 8.33 0 01-2.442 5.906 8.274 8.274 0 01-2.653 1.79 8.265 8.265 0 01-3.246.657 8.27 8.27 0 01-3.247-.656A8.274 8.274 0 015.1 16.9a8.32 8.32 0 01-2.442-5.906A8.329 8.329 0 015.1 5.086 8.473 8.473 0 016.558 3.92a.374.374 0 00.176-.32V2.095c0-.14-.148-.23-.272-.169a10.14 10.14 0 00-5.587 8.941C.809 16.463 5.386 21.113 10.98 21.125c5.601.012 10.144-4.53 10.144-10.134 0-3.966-2.274-7.4-5.588-9.064zM10.25 12.125h1.5a.188.188 0 00.187-.188V1.063a.188.188 0 00-.187-.188h-1.5a.188.188 0 00-.188.188v10.874c0 .104.085.188.188.188z" ></path>
  </symbol>
  <symbol xmlns="http://www.w3.org/2000/svg" viewBox="0 0 12 14" id="flame">
    <path d="M11.033 6.331a5.43 5.43 0 00-1.295-1.8l-.455-.417a.127.127 0 00-.203.052l-.203.583c-.127.365-.36.739-.69 1.106a.098.098 0 01-.064.031.086.086 0 01-.067-.023.092.092 0 01-.031-.075c.058-.94-.223-2.002-.84-3.157-.508-.959-1.216-1.707-2.1-2.23L4.438.023a.125.125 0 00-.187.114l.034.75c.023.513-.036.966-.177 1.342-.171.461-.418.89-.734 1.274a4.62 4.62 0 01-.742.72 5.51 5.51 0 00-1.567 1.899 5.434 5.434 0 00-.133 4.535 5.49 5.49 0 002.928 2.9 5.5 5.5 0 002.14.429c.742 0 1.46-.144 2.14-.427a5.445 5.445 0 001.747-1.167A5.408 5.408 0 0011.5 8.533c0-.762-.156-1.503-.467-2.202zM9.14 11.633A4.43 4.43 0 016 12.921a4.43 4.43 0 01-3.14-1.288 4.34 4.34 0 01-1.297-3.1c0-.68.153-1.331.454-1.937a4.42 4.42 0 011.263-1.53c.339-.26.646-.557.915-.888.39-.476.697-1.007.91-1.578a3.75 3.75 0 00.189-.726c.376.347.692.765.956 1.256.522.978.763 1.848.716 2.589a1.156 1.156 0 002.012.847 5.09 5.09 0 00.538-.713c.218.28.401.585.546.913a4.33 4.33 0 01.376 1.767c0 1.17-.461 2.272-1.297 3.1z" ></path>
  </symbol>
  <symbol xmlns="http://www.w3.org/2000/svg" viewBox="0 0 14 12" id="video">
    <path d="M13.25 2.723l-2 1.152V1.5a1 1 0 00-1-1H1a1 1 0 00-1 1v9a1 1 0 001 1h9.25a1 1 0 001-1V8.125l2 1.152a.5.5 0 00.75-.432V3.156a.5.5 0 00-.75-.433zm-3.125 7.652h-9v-8.75h9v8.75zm2.75-2.61l-1.625-.934v-1.66l1.625-.937v3.532zM2.25 3.626H4a.125.125 0 00.125-.125v-.75A.125.125 0 004 2.625H2.25a.125.125 0 00-.125.125v.75c0 .069.056.125.125.125z"></path>
  </symbol>
  <symbol xmlns="http://www.w3.org/2000/svg" viewBox="0 0 14 12" id="photo">
    <path d="M13.5.5H.5A.5.5 0 000 1v10a.5.5 0 00.5.5h13a.5.5 0 00.5-.5V1a.5.5 0 00-.5-.5zm-.625 9.875H1.125v-.623l2.164-2.568 2.345 2.782L9.283 5.64l3.592 4.26v.475zm0-2.028L9.378 4.2a.124.124 0 00-.19 0L5.633 8.412l-2.25-2.667a.124.124 0 00-.19 0L1.125 8.198V1.625h11.75v6.722zM3.75 5.125a1.375 1.375 0 100-2.75 1.375 1.375 0 000 2.75zm0-1.813a.437.437 0 11.001.874.437.437 0 01-.001-.873z"></path>
  </symbol>
  <symbol xmlns="http://www.w3.org/2000/svg" viewBox="0 0 512.002 512.002" id="pencil">
    <path d="M448.362 63.64L384.722 0l-74.246 74.247 53.034 137.886z" fill="#ff3e3a"></path>
    <path d="M448.362 63.64L331.69 180.313l106.066 21.213 74.246-74.246z" fill="#cc3245"></path>
    <path d="M34.216 406.504L0 512.001l112.284-69.856z" fill="#373e9f"></path>
    <path d="M.002 512.001l105.497-34.215-14.428-56.854z" fill="#340d66"></path>
    <path d="M188.374 366.055L61.095 323.629l-26.879 82.875 35.641 35.641z" fill="#ffe7b5"></path>
    <path d="M69.857 442.145l35.642 35.641 82.874-26.878-21.213-106.066z" fill="#ffd06a"></path>
    <path d="M124.734 387.269l63.639 63.639 249.383-249.382-63.64-63.639-166.169 81.316z" fill="#ff9a27"></path>
    <path d="M61.071 323.614L310.415 74.27l63.63 63.63-249.344 249.344z" fill="#ffb820"></path>
  </symbol>
  <symbol xmlns="http://www.w3.org/2000/svg" viewBox="-0.75 -0.25 134.7 169.1" id="pika4u">
    <path fill="#763a00" d="M78.85 140.5q-8.1 5.25-11.8 7.15-2.85 1.5-4.75-1-1.85-2.5-.25-3.45 3.95-2.4 9.7-6.95 5.6-4.45 7.7-6.7-3.65-4.45-5.45-5.95l4-3 5.75-1.65-1.1 3.45q.7-.4 4.5-1.75l-.45 4.5-.9.9 4.35 6.3q-2.5 2.4-11.3 8.15"></path>
    <path fill="#ffe100" d="M132.75 45q-.1 15 .25 22.05-8.6 1.9-20.9 5.95-14.65 4.85-22.45 9.15l4.65 6.75 6.05 8.1q-8.65 5.75-12.55 9.05l9.2 10.3-10.3 8.8.45-4.5q-3.8 1.35-4.5 1.75l1.1-3.45L78 120.6l4.95-4.2q-4.7-2.9-11.6-8.2L82.05 96 69.5 81.4 53.75 63.75q46.9-30.25 79.25-38.9-.2 8.55-.25 20.15"></path>
    <path fill="#763a00" d="M78 120.45l5.65-2.2.6.05.1.45-1.05 2.8 3.55-1.6q.85-.3.85.45-.05 2-.7 4.75l-1 .75.5-4.45q-1.25.3-3.7 1.35-.95.35-.7-.55l.85-2.55q-4.05 1.25-6.15 2l1.2-1.25"></path>
    <path fill="#542400" d="M79.2 140.3l-12.25 6.95q4-2.55 11.3-8.45L88.5 130l1.75 2.35q-3.75 3.45-11.05 7.95"></path>
    <path fill="#f9be00" d="M111.7 73.2q-12.3 4.15-22.85 8.5 5.95-4.05 20.2-10.7 15.65-7.3 23.65-9.1l.2 5.15q-7.95 1.7-21.2 6.15M97.6 93.55l2.85 3.5-13.55 8.75q7.9-9.75 10.7-12.25m-.8 22.9l-4.3 3.45-5.3 4.35.3-2q4.65-7 6.6-9l2.7 3.2"></path>
    <path fill="#542400" d="M87.2 124.25l-2 1.5 2.3-3.5-.3 2"></path>
    <path fill="#0d131a" d="M133.85 24.35q-.35 4.8-.25 21.05l.2 22.15-.35.45q-10.75 2.3-23.25 6.55-11.75 4.05-19.4 7.9 3.2 4.85 10.5 14.5.3.35-.1.6-7.9 5.2-12.25 8.6l8.9 10.15q.3.3-.05.6l-6.6 5.45q-3.45 2.85-4.4 3.85l4.15 6.15-.05.55q-1.95 1.95-8.7 6.3-7.15 4.55-14.7 8.55l-.9.1q-.15-.3.55-.7 18.05-11.2 22-14.85l-4.05-5.95q-.2-.3.05-.55l4.2-4.05 6.25-5.4q-5.6-6.75-8.8-9.95-.35-.35.05-.6 6.05-4.85 12.2-8.9-6.35-8.5-10.4-14.6-.3-.4.15-.6 7.9-4 19.6-8.2 12.95-4.7 23.6-7-.45-6.8-.4-20.85.05-13.75.45-19.55-16.45 4.5-39.9 16.35-21.9 11.05-36.7 21.7 6.8 7.3 27.55 31.7.25.3 0 .55l-5.45 6.05-5 5.7q8.9 6.7 11.05 8.05.45.3.05.7l-8.2 6.8q2.35 2.35 4.9 5.8.25.3 0 .55-1.8 2.15-7.7 6.55-5.8 4.3-10.15 6.75l-.8.1q-.2-.25.35-.65l9.3-6.95q5.4-4.25 7.1-6.2-2.85-3.7-5.1-5.65-.35-.35.05-.65l8.25-6.75q-4.85-3.2-11.2-7.9-.35-.3-.05-.6l10.5-12.05L66.75 79.6l-13.8-15.4q-.3-.35.05-.65 15-11.1 38.85-22.95 24.5-12.2 41.5-16.7.6-.15.5.45M12.5 12.55q-3.05 1.7-5.35 7.85Q5.2 25.6 4.9 30.5q-2.3-6.9-3.55-17.95Q.05 1.25 1.7.8 3.3.35 6.6 4.2q2.65 3.1 5.9 8.35"></path>
    <path fill="#ffe100" d="M91.25 7.85q1.65 2.65 1.35 9.8-.3 6.3-1.7 10.95-3.7 3.95-8.8 7.8-5.75 4.4-9.8 5.85 4.65 3.75 7.45 8.65 1.85 3.2 3.25 7.85 2.4 7.55.3 16.1-1.85 7.5-5.85 11.55-9.2 8.6-23.8 10.55-12.5 1.7-24.05-1.75-4.95-1.65-9.1-5.95-4.65-4.75-6.5-11.1-1.8-6.1-.75-12.55.8-5.1 3.25-9.75-3.1-3.5-6.95-12.15Q6.35 36.35 5 31.3q.25-7.35 2.9-12.8 2-4.1 4.4-5.8 3.95 5.65 7.85 15.65 4.1 10.45 4.65 17 7.15-6.55 18.05-8.9 9.95-2.15 17.45.1 5.1-8.1 15.65-17.55 9.55-8.5 15.3-11.15"></path>
    <path fill="#ffe100" d="M33.95 92.7q9.65-4.65 17.1-6.3 6-1.3 15.95-1.25 9.8 0 10.45 1.25 2.8 5.35 5.6 15.1 3 10.6 4.4 20.95 3.55 26.8-5.8 33.8-6.85 5.2-23.95-1.15-7.5-2.7-11.05-3.55-4.55-1.05-9.35-.85-4.85.2-8.6-1.1-3.4-1.15-4.9-3.05-3.4-4.4-2.55-14.85.65-7.85 3.2-15.95l2.85-8.1 2.8-7.55q.55-1.35 2.25-4.5l1.6-2.9"></path>
    <path fill="#ffe100" d="M33.95 92.7q1.6-.55 2.5 3 .95 3.75-.35 7.8-1.4 4.3-5.35 8.4-3.9 4.1-6.3 3.85-2.65.05-5.2-.8-2.25-.8-2.35-1.5 0-1.05 1.1-1.85l-1.8-3.3q-.9-1.8-.8-2.1.25-.4 1.95-.25-.05-2.95 2.2-1.75.1-2.35 1.95-.65 1.5-2.4 4-4.85 2.15-2.15 4.1-3.5 1.6-1.55 4.35-2.5"></path>
    <path fill="#0d131a" d="M91.25 7.85q5.2-2.7 10.65-4.45 6.75-2.15 7.85-.5 1.4 2.1-6.3 12.1-7.1 9.15-12.9 14.1 1.8-5.55 2.05-11.2.25-5.95-1.35-10.05"></path>
    <path fill="#ffe100" d="M15.95 146.25q2.65-2.2 5.7-3.15 2.8 6.65 12.05 7.55-4.4 2.2-10.45 3.15-6.1.9-7.15-.5-2.05.5-2.4-.55-.3-.85.4-1.9-1.45-1.9 1.85-4.6m56.85 12.3q4.05.15 7.4-1.4 3.15-1.45 4.45-3.75 2.6 4.3 3.2 8.15.6 3.95-1.2 5Q86.6 168 85.3 168q-1.15-.05-1.9-.95-.6 1.65-4.8-1.45-4.3-3.2-5.8-7.05"></path>
    <path fill="#b50005" d="M40.95 77.95l3.4-2.2q1-.75 3-1.35l2.8-.5 4.25-.45q-.15 1.45-1.1 2.9l-5.5.3q-2.85 1.05-3.55 3.15l-3.3-1.85"></path>
    <path fill="#e50012" d="M44.2 79.75q1-1.95 3.65-3.05 2.9-1.2 5.55-.3-4.1 5.4-9.2 3.35"></path>
    <path fill="#f9be00" d="M17 112.75q.8.6 3.6.65l4.6-.5-.7 2.75q-2.75.1-5.45-.85-2.85-1-2.05-2.05m30.25-14.7q-.05-.7 3.45-1.25l3.6.2q.05.6-1.35 1.25l-2.2.65-2.15-.1q-1.35-.25-1.35-.75m-26 36.55q1.8 13.35 14.7 12.3 6.5-.55 12.55.9 5.2 1.25 12.55 4.65 8.3 3.9 16.4.9 10.35-3.8 11.3-18.3-.1 11.35-3 16.65-4.65 8.65-17.25 6.35-4.2-.75-15.8-4.6-9.5-3.15-12.45-2.8-9.3 1.1-14.4-2.65-5.65-4.15-4.6-13.4"></path>
    <path fill="#f9be00" d="M17.65 145.2q.25-.35 2.1-1.05l2.25-.8q1 2.9 4.95 5.15 3.6 2.05 6.7 2.05-3.15 1.7-7.05 2.55-4.65-6.95-8.95-7.9m58.95 18.7l-2.05-2.5q-1-1.5-1.4-2.85 7.3.75 11.4-5.1 1.65 2.55 2 3.7-3.35.2-6.15 2.05-2.85 1.85-3.8 4.7"></path>
    <path fill="#0d131a" d="M25.15 62.8q2.35-.65 4.5.8 2.1 1.45 2.85 4.2.8 2.65-.45 4.8-1.15 2-3.55 2.75-2.4.7-4.75-.5-2.3-1.2-2.95-3.55-.8-2.75.4-5.2 1.2-2.55 3.95-3.3"></path>
    <path fill="#fff" d="M24.85 63.5l2.25.1q1.05.5 1.45 1.55.4 1.15 0 2.2-.45 1.1-1.65 1.55l-2.25-.1q-1.05-.5-1.4-1.65-.35-1.2.15-2.25.45-1.05 1.45-1.4"></path>
    <path fill="#0d131a" d="M60.95 51.5q2.8-.9 5.45.6 2.75 1.5 3.35 4.55.55 2.55-.75 4.9-1.25 2.35-3.6 3.15-2.75.95-5.25-.35-2.4-1.25-3.25-3.75-1-3.1.3-5.75 1.2-2.55 3.75-3.35"></path>
    <path fill="#fff" d="M60.6 52.25q1.1-.5 2.25 0 1.15.45 1.6 1.6.4 1.05 0 2.2-.4 1.25-1.55 1.65-1.2.45-2.25 0-1.1-.45-1.55-1.55-.45-1.1-.05-2.25t1.55-1.65"></path>
    <path fill="#0d131a" d="M43.9 70.65q-.05-.2 1.05-.5l1.1-.2-.3.65-.65.45-.7-.05-.5-.35"></path>
    <path fill="#e50012" d="M78.1 63.9q1.9.75 2.5 3.95.65 3.2-.5 6.25-1.25 3.45-3.9 5.15-2.65 1.7-4.9.6-2.25-1.05-2.95-4.05-.75-3.15.75-6.4 1.6-3.45 4.25-5 2.5-1.4 4.75-.5m-53 19q2.2 2.8 2.95 5.55.75 2.9-.65 3.9-1.35.95-3.85-.55-2.15-1.25-4.6-3.95-2.15-2.45-3-5.05-.85-2.65.25-3.75 1.35-1.25 4.1-.05 2.65 1.15 4.8 3.9"></path>
    <path fill="#0d131a" d="M5.15 1.95q6 5.7 11.65 16.75 6.7 13.15 8.5 26.25l-1 .9Q22.25 32.7 15.2 19.1 9.85 8.7 4.45 2.75 2.9 1.15 2.2 1.2q-.9.1-.95 2.65-.25 8.7 3.55 23.4 4.6 17.8 11.9 28.05l-.5 1.25Q8.25 46.3 3.45 28.6-.75 13.05.1 3.7.35.4 1.65.05q1.2-.3 3.5 1.9"></path>
    <path fill="#0d131a" d="M5.6 32.25L4.55 29.7q.45-6.05 2.4-10.65 1.9-4.55 5-6.95l.75 1.05Q9.45 15.7 7.6 20.9q-1.8 5-2 11.35m87.95-7.05q10.3-10.75 14.85-18.7 1.45-2.5.9-3.25l-3.75-.1q-8.75 1.7-19.65 8.9Q71.4 21.6 60.85 36.7l-1.15-.35Q70.8 20 85.05 10.65q10.65-7 20.2-8.6 4.3-.75 5.15.55.75 1.2-.95 4.45-4.75 8.9-15.2 19.6-11.8 12.05-21.4 16.05l-1.05-.75q9.45-4 21.75-16.75"></path>
    <path fill="#0d131a" d="M91.6 28l-1.85 1.55q2.25-7.05 2.3-13.6 0-5.45-1.2-7.5l1-.7q1.3 2.25 1.5 7.25.2 6.2-1.75 13M79.55 92.4q-.35-1.15 0-1.3.4-.15.8 1 8.75 24.25 8.65 43.4-.15 19.35-9.4 22.95-5.05 1.95-14.45-.15-5.7-1.25-14.95-4.65-3.85-1.4-5.9-1.85l-6.2-.45-7.85-.5q-4.5-1-7.4-4.25-3.7-4.05-1.85-17.45 1.85-13.7 8.45-28.4.45-1 .85-.85.35.15-.1 1.15-6.05 14.8-7.8 27.85-1.65 12.8 1.75 16.6 2.75 3.1 6.65 4l7.3.55 6.8.45q2.05.4 5.75 1.85 20.05 7.6 28.3 4.45 8.45-3.2 8.3-22.15-.1-18-7.7-42.25M28.8 94.95l1.45.45q-5.2 3.6-9.15 9.4-.55.85-.85.7-.3-.2.25-1.05 3.6-6.15 8.3-9.5M37 78.5q-.45-.3-.25-.55l.7-.05q1.85.7 5.55-1.95 2.15-1.55 3.75-2.05 1.6-.55 4.55-.65l3.35-.5q1.35-.5 1.7-1.7.25-.6.55-.5.3.05.2.7-.6 3.05-5.8 3.25l-4.2.6q-1.5.5-3.45 1.9-4.3 3.1-6.65 1.5"></path>
    <path fill="#0d131a" d="M41.5 77.55q4 3.1 7.4 1.9 1.8-.65 3.15-2.3 1.35-1.65 1.85-3.7l1.35-.25q-.35 2.35-2.1 4.35-1.65 1.9-3.9 2.75l-4.3.25q-2.35-.5-4.55-2.25l1.1-.75M14.1 147.4q2.3-3 7.45-4.9l.45 1.2q-4.4 1.75-6.55 3.95-1.85 1.95-1.1 2.9l-.75 1.05q-1.6-1.45.5-4.2"></path>
    <path fill="#0d131a" d="M18.05 147.25q.7-.35.85 0 .2.3-.5.7-1.7 1-2.95 2.4-1.35 1.45-1.05 2.2l1.7.15.45 1.1-2.05.2q-1.2-.15-1.45-.85-.5-1.35 1.35-3.3 1.65-1.75 3.65-2.6"></path>
    <path fill="#0d131a" d="M32.95 150.5l2.05.3q-5.55 2.75-12.45 3.7-6.8.9-7.35-.95-.3-.95 1.25-2.4 1.65-1.6 3.85-2.15.7-.15.8.15.1.35-.55.6-1.65.65-2.85 1.65-1.15 1-1 1.6.2.85 5 .4 5.6-.55 11.25-2.9m39.15 8l1.45-.1q1.35 3.65 5 6.5 3.25 2.55 4.2 2 .45-.3-.15-1.95-.55-1.65-1.75-3.6-.35-.5-.05-.7.25-.15.65.3 1.55 1.85 2.2 4.2.65 2.45-.3 2.95-1.45.75-5.35-2.15-4.35-3.25-5.9-7.45"></path>
    <path fill="#0d131a" d="M84.55 160.3q-.3-.7.05-.85.3-.15.65.5 1.75 3.3 1.85 5.85.05 2.2-1.05 2.65l-1.35.05q-.9-.2-1.6-.95l.5-1.1q1.25 1.25 2 .9.6-.3.4-2.1-.25-2-1.45-4.95"></path>
    <path fill="#0d131a" d="M84.15 153.9l.9-1.1q2.75 4.55 3.35 8.9.6 4.75-1.95 5.85l.15-1.4q1.25-1.2.5-4.9-.75-3.6-2.95-7.35M53.5 75.85l-.45.9q-2.2-.7-4.85.3-2.65 1-3.5 2.85l-1-.3q1.05-2.25 3.95-3.4 2.9-1.15 5.85-.35m-35.9-22.7q.55-.8.9-.6.35.25-.15 1.05-3.4 5.8-4.3 12-.9 6.25.8 12.4 1.85 6.7 6.65 11.3 4.75 4.5 11.75 6.45 1.35.4 1.25.75l-1.45.15q-7.2-1.4-12.65-6.35-5.45-4.95-7.35-11.85-1.75-6.3-.55-13 1.2-6.75 5.1-12.3M50.35 35q6.75-.2 12.1 1.8.9.35.8.7l-1.05.1q-11.6-3.2-24.6 1.3-8.25 2.8-13.9 8.1-.7.65-.95.4-.3-.3.35-1 5.3-6 14-9 6.65-2.25 13.25-2.4M83.2 56.3q2.45 6.95 1.4 15.2-1.2 9.35-6.6 15-.65.7-.9.45-.3-.25.25-1 4.7-6.15 5.7-14.8.9-7.8-1.45-14.35-3.45-9.85-11.4-15.45-.85-.6-.6-.9.2-.3 1.1.2 4.2 2.45 7.5 6.55 3.25 4.1 5 9.1m-61.55 46.8l-.6.75q-.6-.45-.85-.35l-.2.6-.3.65-.75-.2-.75-.15q-.35.15-.4 1l-.2.95h-.9l-.75.15q-.2.3 1.15 2.65l1.4 2.45-.55.7q-.6.6-.55 1 .1.6 2.85 1.25l4.3.45-.25 1.2q-2.15.2-5.05-.8-2.9-.95-3.1-1.9-.15-.9 1.2-1.95-2.85-4.75-2.5-5.6.15-.35.9-.45l1.25.1q-.1-.65.1-1.3.15-.65.5-.85l.75-.1q.5.1.85.35.1-1.15.7-1.3l.85.15.9.55"></path>
    <path fill="#ffe100" d="M94.05 98.6q-5.25 6.65-12.85 9.3-5.25 1.8-11.75-4.35-6.55-6.2-3.4-10.6 3.2-4.45 8.7-8.8 6.4-5.1 12.05-6.65 2.05-3.25 2.65-3.4l1.45.3q1.05.5 1.85 1.75 2.65.35 4.45 2.45 1.9 2.15 2.05 5.3.3 7.7-5.2 14.7"></path>
    <path fill="#f9be00" d="M98.7 81.3q2.8 7.55-3.9 16.55-6.3 8.55-13.65 9.55 6.8-3.15 12.4-11.55Q99.1 87.5 98.7 81.3"></path>
    <path fill="#0d131a" d="M91.25 74.1q1.1.5 1.85 1.7 6.3.75 6.9 8.75.5 6.7-4.45 13.55-5.4 7.35-13.95 10.05l-1.05-.1q-.15-.4.75-.75 7.75-2.95 12.85-9.8 4.95-6.65 4.55-12.8-.5-6.7-5.6-7.9-.65-.05-.85-.5-.35-.65-1.25-1.05L89.45 75q-.45.15-1.2 1.4-.75 1.35-1.2 1.5-5.85 2.3-10.3 5.45-5.2 3.7-10 9.45-.6.7-.95.45-.3-.25.25-1.05 5.25-6.8 11.05-10.7 4.15-2.8 9.25-4.45l1.25-1.6q.9-1.45 1.65-1.6.95-.25 2 .25"></path>
    <path fill="#0d131a" d="M90.1 77.05l.9-.15q.25.15-.25.7-.55.65-.55.85 0 .35.3.8l.3.6-.4.55q-.4.45-.4 1 0 .65.4 1.25l.4.75-.25.6q-.3.5-.25.9.05.4.6 1l.6.75-.25.75q-.2.6-.1 1.1l.8.7 1.35.45q.65.05.65.4l-.55.4-1.85-.3q-1.1-.45-1.35-1.2-.15-.4-.05-1.05.1-.7.45-1.1l-.85-.7q-.4-.5-.45-1-.2-.9.7-1.7-.95-.8-1.1-1.85-.1-1.1 1-1.85-.65-.5-.65-1.35-.05-.35.25-.75l.6-.55m-72.5-23.9q.55-.8.9-.6.35.25-.15 1.05-3.4 5.8-4.3 12-.9 6.25.8 12.4 1.85 6.7 6.65 11.3 4.75 4.5 11.75 6.45 1.35.4 1.25.75l-1.45.15q-7.2-1.4-12.65-6.35-5.45-4.95-7.35-11.85-1.75-6.3-.55-13 1.2-6.75 5.1-12.3"></path>
  </symbol>
</svg>

